<svg width="3794" height="1570" xmlns="http://www.w3.org/2000/svg" xmlns:xlink="http://www.w3.org/1999/xlink" xml:space="preserve" overflow="hidden"><defs><clipPath id="clip0"><rect x="303" y="659" width="3794" height="1570"/></clipPath></defs><g clip-path="url(#clip0)" transform="translate(-303 -659)"><rect x="303" y="659" width="3794" height="1570" fill="#FFFFFF"/><g><rect x="681" y="870" width="3366" height="1194" fill="#FFFFFF"/></g><g><path d="M680.5 1931.56 4047.5 1931.56M680.5 1798.56 4047.5 1798.56M680.5 1665.55 4047.5 1665.55M680.5 1533.55 4047.5 1533.55M680.5 1400.55 4047.5 1400.55M680.5 1268.54 4047.5 1268.54M680.5 1135.54 4047.5 1135.54M680.5 1002.53 4047.5 1002.53M680.5 870.5 4047.5 870.5" stroke="#D9D9D9" stroke-width="3.4375" stroke-linejoin="round" stroke-miterlimit="10" fill="none"/></g><g><path d="M810.027 1404.05 927.03 1404.05 927.03 2064 810.027 2064ZM1483.05 1699.06 1600.05 1699.06 1600.05 2064 1483.05 2064ZM2156.07 1622.05 2273.07 1622.05 2273.07 2064 2156.07 2064ZM2829.09 1842.06 2947.1 1842.06 2947.1 2064 2829.09 2064ZM3502.11 1622.05 3620.12 1622.05 3620.12 2064 3502.11 2064Z"/></g><g><path d="M959.031 1047.03 1076.04 1047.03 1076.04 2064 959.031 2064ZM1632.05 1397.05 1749.06 1397.05 1749.06 2064 1632.05 2064ZM2305.08 1354.04 2423.08 1354.04 2423.08 2064 2305.08 2064ZM2978.1 1625.05 3096.1 1625.05 3096.1 2064 2978.1 2064ZM3652.12 1373.05 3769.12 1373.05 3769.12 2064 3652.12 2064Z" fill="#EC008B"/></g><g><path d="M1108.04 1047.03 1225.04 1047.03 1225.04 2064 1108.04 2064ZM1781.06 1397.05 1899.06 1397.05 1899.06 2064 1781.06 2064ZM2454.08 1354.04 2572.08 1354.04 2572.08 2064 2454.08 2064ZM3128.1 1625.05 3245.11 1625.05 3245.11 2064 3128.1 2064ZM3801.12 1373.05 3918.13 1373.05 3918.13 2064 3801.12 2064Z" fill="#1696D2"/></g><g><path d="M4.58333-1.3865e-06 4.58369 1170.08-4.58298 1170.08-4.58333 1.3865e-06ZM13.7504 1165.5 0.000360892 1193-13.7496 1165.5Z" fill="#747474" transform="matrix(1 0 0 -1 680.5 2063.5)"/></g><g><path d="M680.5 2063.5 4047.5 2063.5" stroke="#D9D9D9" stroke-width="3.4375" stroke-linejoin="round" stroke-miterlimit="10" fill="none" fill-rule="evenodd"/></g><g><text fill="#595959" font-family="Aptos,Aptos_MSFontService,sans-serif" font-weight="400" font-size="73" transform="matrix(1 0 0 1 513.402 2084)">0%</text></g><g><text fill="#595959" font-family="Aptos,Aptos_MSFontService,sans-serif" font-weight="400" font-size="73" transform="matrix(1 0 0 1 513.402 1952)">2%</text></g><g><text fill="#595959" font-family="Aptos,Aptos_MSFontService,sans-serif" font-weight="400" font-size="73" transform="matrix(1 0 0 1 513.402 1819)">4%</text></g><g><text fill="#595959" font-family="Aptos,Aptos_MSFontService,sans-serif" font-weight="400" font-size="73" transform="matrix(1 0 0 1 513.402 1686)">6%</text></g><g><text fill="#595959" font-family="Aptos,Aptos_MSFontService,sans-serif" font-weight="400" font-size="73" transform="matrix(1 0 0 1 513.402 1554)">8%</text></g><g><text fill="#595959" font-family="Aptos,Aptos_MSFontService,sans-serif" font-weight="400" font-size="73" transform="matrix(1 0 0 1 474.237 1421)">10%</text></g><g><text fill="#595959" font-family="Aptos,Aptos_MSFontService,sans-serif" font-weight="400" font-size="73" transform="matrix(1 0 0 1 474.237 1288)">12%</text></g><g><text fill="#595959" font-family="Aptos,Aptos_MSFontService,sans-serif" font-weight="400" font-size="73" transform="matrix(1 0 0 1 474.237 1156)">14%</text></g><g><text fill="#595959" font-family="Aptos,Aptos_MSFontService,sans-serif" font-weight="400" font-size="73" transform="matrix(1 0 0 1 474.237 1023)">16%</text></g><g><text fill="#595959" font-family="Aptos,Aptos_MSFontService,sans-serif" font-weight="400" font-size="73" transform="matrix(1 0 0 1 474.237 890)">18%</text></g><g><text fill="#595959" font-family="Aptos,Aptos_MSFontService,sans-serif" font-weight="400" font-size="73" transform="matrix(1 0 0 1 886.487 2179)">proteins</text></g><g><text fill="#595959" font-family="Aptos,Aptos_MSFontService,sans-serif" font-weight="400" font-size="73" transform="matrix(1 0 0 1 1563.55 2179)">sources</text></g><g><text fill="#595959" font-family="Aptos,Aptos_MSFontService,sans-serif" font-weight="400" font-size="73" transform="matrix(1 0 0 1 2303.73 2179)">dna</text></g><g><text fill="#595959" font-family="Aptos,Aptos_MSFontService,sans-serif" font-weight="400" font-size="73" transform="matrix(1 0 0 1 2980.17 2179)">xml</text></g><g><text fill="#595959" font-family="Aptos,Aptos_MSFontService,sans-serif" font-weight="400" font-size="73" transform="matrix(1 0 0 1 3596.84 2179)">english</text></g><g><text fill="#595959" font-family="Aptos,Aptos_MSFontService,sans-serif" font-weight="400" font-size="83" transform="matrix(6.12323e-17 -1 1 6.12323e-17 436.792 1514)">FR</text></g><g><rect x="1512" y="724" width="39.9999" height="40.9999"/></g><g><text fill="#595959" font-family="Aptos,Aptos_MSFontService,sans-serif" font-weight="400" font-size="73" transform="matrix(1 0 0 1 1570.82 765)">LZ77</text></g><g><rect x="1810" y="724" width="40.0002" height="40.9999" fill="#EC008B"/></g><g><text fill="#595959" font-family="Aptos,Aptos_MSFontService,sans-serif" font-weight="400" font-size="73" transform="matrix(1 0 0 1 1868.85 765)">Approx.LZ77</text></g><g><rect x="2352" y="724" width="40.0002" height="40.9999" fill="#1696D2"/></g><g><text fill="#595959" font-family="Aptos,Aptos_MSFontService,sans-serif" font-weight="400" font-size="73" transform="matrix(1 0 0 1 2410.75 765)">Approx.LZ77Par</text></g></g></svg>