<svg width="3794" height="1570" xmlns="http://www.w3.org/2000/svg" xmlns:xlink="http://www.w3.org/1999/xlink" xml:space="preserve" overflow="hidden"><defs><clipPath id="clip0"><rect x="303" y="659" width="3794" height="1570"/></clipPath></defs><g clip-path="url(#clip0)" transform="translate(-303 -659)"><rect x="303" y="659" width="3794" height="1570" fill="#FFFFFF"/><g><rect x="620" y="870" width="3427" height="1194" fill="#FFFFFF"/></g><g><path d="M620.5 1914.56 4047.5 1914.56M620.5 1765.56 4047.5 1765.56M620.5 1616.55 4047.5 1616.55M620.5 1467.55 4047.5 1467.55M620.5 1317.54 4047.5 1317.54M620.5 1168.54 4047.5 1168.54M620.5 1019.53 4047.5 1019.53M620.5 870.5 4047.5 870.5" stroke="#D9D9D9" stroke-width="3.4375" stroke-linejoin="round" stroke-miterlimit="10" fill="none"/></g><g><path d="M751.025 954.031 871.029 954.031 871.029 2064 751.025 2064ZM1437.05 1061.03 1556.05 1061.03 1556.05 2064 1437.05 2064ZM2122.07 1061.03 2242.07 1061.03 2242.07 2064 2122.07 2064ZM2807.09 1115.04 2927.1 1115.04 2927.1 2064 2807.09 2064ZM3493.11 1061.03 3612.12 1061.03 3612.12 2064 3493.11 2064Z"/></g><g><path d="M903.03 1322.04 1023.03 1322.04 1023.03 2064 903.03 2064ZM1588.05 1585.05 1708.06 1585.05 1708.06 2064 1588.05 2064ZM2274.07 1439.05 2393.08 1439.05 2393.08 2064 2274.07 2064ZM2959.1 1806.06 3079.1 1806.06 3079.1 2064 2959.1 2064ZM3644.12 1537.05 3764.12 1537.05 3764.12 2064 3644.12 2064Z" fill="#EC008B"/></g><g><path d="M1055.03 1302.04 1175.04 1302.04 1175.04 2064 1055.03 2064ZM1740.06 1624.05 1860.06 1624.05 1860.06 2064 1740.06 2064ZM2426.08 1567.05 2545.08 1567.05 2545.08 2064 2426.08 2064ZM3111.1 1806.06 3231.11 1806.06 3231.11 2064 3111.1 2064ZM3796.12 1604.05 3916.13 1604.05 3916.13 2064 3796.12 2064Z" fill="#1696D2"/></g><g><path d="M4.58333-1.3865e-06 4.58369 1170.08-4.58298 1170.08-4.58333 1.3865e-06ZM13.7504 1165.5 0.000360892 1193-13.7496 1165.5Z" fill="#747474" transform="matrix(1 0 0 -1 620.5 2063.5)"/></g><g><path d="M620.5 2063.5 4047.5 2063.5" stroke="#D9D9D9" stroke-width="3.4375" stroke-linejoin="round" stroke-miterlimit="10" fill="none" fill-rule="evenodd"/></g><g><text fill="#595959" font-family="Aptos,Aptos_MSFontService,sans-serif" font-weight="400" font-size="73" transform="matrix(1 0 0 1 513.402 2084)">0</text></g><g><text fill="#595959" font-family="Aptos,Aptos_MSFontService,sans-serif" font-weight="400" font-size="73" transform="matrix(1 0 0 1 513.402 1935)">2</text></g><g><text fill="#595959" font-family="Aptos,Aptos_MSFontService,sans-serif" font-weight="400" font-size="73" transform="matrix(1 0 0 1 513.402 1786)">4</text></g><g><text fill="#595959" font-family="Aptos,Aptos_MSFontService,sans-serif" font-weight="400" font-size="73" transform="matrix(1 0 0 1 513.402 1636)">6</text></g><g><text fill="#595959" font-family="Aptos,Aptos_MSFontService,sans-serif" font-weight="400" font-size="73" transform="matrix(1 0 0 1 513.402 1487)">8</text></g><g><text fill="#595959" font-family="Aptos,Aptos_MSFontService,sans-serif" font-weight="400" font-size="73" transform="matrix(1 0 0 1 474.237 1338)">10</text></g><g><text fill="#595959" font-family="Aptos,Aptos_MSFontService,sans-serif" font-weight="400" font-size="73" transform="matrix(1 0 0 1 474.237 1189)">12</text></g><g><text fill="#595959" font-family="Aptos,Aptos_MSFontService,sans-serif" font-weight="400" font-size="73" transform="matrix(1 0 0 1 474.237 1040)">14</text></g><g><text fill="#595959" font-family="Aptos,Aptos_MSFontService,sans-serif" font-weight="400" font-size="73" transform="matrix(1 0 0 1 474.237 890)">16</text></g><g><text fill="#595959" font-family="Aptos,Aptos_MSFontService,sans-serif" font-weight="400" font-size="73" transform="matrix(1 0 0 1 831.954 2179)">proteins</text></g><g><text fill="#595959" font-family="Aptos,Aptos_MSFontService,sans-serif" font-weight="400" font-size="73" transform="matrix(1 0 0 1 1521.14 2179)">sources</text></g><g><text fill="#595959" font-family="Aptos,Aptos_MSFontService,sans-serif" font-weight="400" font-size="73" transform="matrix(1 0 0 1 2273.44 2179)">dna</text></g><g><text fill="#595959" font-family="Aptos,Aptos_MSFontService,sans-serif" font-weight="400" font-size="73" transform="matrix(1 0 0 1 2961.99 2179)">xml</text></g><g><text fill="#595959" font-family="Aptos,Aptos_MSFontService,sans-serif" font-weight="400" font-size="73" transform="matrix(1 0 0 1 3590.78 2179)">english</text></g><g><text fill="#595959" font-family="Aptos,Aptos_MSFontService,sans-serif" font-weight="400" font-size="83" transform="matrix(6.12323e-17 -1 1 6.12323e-17 436.792 1945)">Speicher(Byte pro Zeichen)</text></g><g><rect x="1512" y="724" width="39.9999" height="40.9999"/></g><g><text fill="#595959" font-family="Aptos,Aptos_MSFontService,sans-serif" font-weight="400" font-size="73" transform="matrix(1 0 0 1 1570.82 765)">LZ77</text></g><g><rect x="1810" y="724" width="40.0002" height="40.9999" fill="#EC008B"/></g><g><text fill="#595959" font-family="Aptos,Aptos_MSFontService,sans-serif" font-weight="400" font-size="73" transform="matrix(1 0 0 1 1868.85 765)">Approx.LZ77</text></g><g><rect x="2352" y="724" width="40.0002" height="40.9999" fill="#1696D2"/></g><g><text fill="#595959" font-family="Aptos,Aptos_MSFontService,sans-serif" font-weight="400" font-size="73" transform="matrix(1 0 0 1 2410.75 765)">Approx.LZ77Par</text></g><path d="M643.5 1172.5 4047.89 1172.5" stroke="#AEAEAE" stroke-width="9.16667" stroke-miterlimit="8" stroke-dasharray="36.6667 27.5" fill="none" fill-rule="evenodd"/></g></svg>