<?xml version="1.0" encoding="UTF-8"?>
<svg width="111" height="87.989998" xmlns="http://www.w3.org/2000/svg">
 <defs>
  <clipPath id="clipPath2403">
   <path id="path2405" d="m0,841.890015l1190.551025,0l0,-841.890015l-1190.551025,0l0,841.890015z"/>
  </clipPath>
 </defs>
 <g>
  <title>Layer 1</title>
  <path fill="#6ec72d" fill-rule="nonzero" id="path2407" d="m89.656265,28.741364l0,32.799988c0,4.686279 -2.436256,6.838837 -6.844978,6.838837l-11.990013,0c-4.407501,0 -6.842499,-2.152557 -6.842499,-6.838837l0,-32.799988l-35.139999,0l0,-18.741302l-9.186249,0l0,18.741302l-9.6525,0l0,9.278717l9.6525,0l0,23.33252c0,10.032501 6.744995,16.212463 16.027489,16.212463l4.778748,0l0.187511,-9.274902l-4.966259,0c-4.402504,0 -6.84124,-2.34375 -6.84124,-6.937561l0,-23.33252l25.953751,0l0,23.521271c0,9.933777 6.937485,16.023712 16.028748,16.023712l11.990013,0c9.093742,0 16.027489,-6.089935 16.027489,-16.023712l0,-32.799988l-9.18251,0z"/>
  <path fill="#231f20" fill-rule="nonzero" id="path2409" d="m124.807518,44.98999c-2.926254,0 -4.058762,-1.858673 -4.058762,-4.596252l0,-9.912415l-3.146248,0l0,-1.447449l3.146248,0l0,-4.345093l1.571274,-0.376282l0,4.721375l4.881248,0l0,1.447449l-4.881248,0l0,9.851379c0,1.856079 0.502472,3.181152 2.614975,3.181152c0.850029,0 1.635017,-0.131226 2.485008,-0.287476l0,1.386108c-0.880013,0.188904 -1.730003,0.377502 -2.612495,0.377502"/>
  <path fill="#231f20" fill-rule="nonzero" id="path2411" d="m143.532532,37.280029l-12.021255,0c0.032501,1.825104 0.628738,3.521423 1.634979,4.718933c0.882523,1.041107 2.110031,1.668701 3.810013,1.668701c1.384995,0 2.581238,-0.505066 3.430023,-1.38504c0.567474,-0.597534 1.007492,-1.291351 1.194977,-2.233734l1.634979,0c-0.218719,1.35376 -0.878754,2.456207 -1.759979,3.30368c-1.131256,1.131287 -2.706268,1.825104 -4.5,1.825104c-2.266235,0 -3.871246,-0.943909 -5.005005,-2.231293c-1.291229,-1.51001 -2.013733,-3.589935 -2.013733,-5.981293c0,-1.981201 0.313751,-3.933716 1.541245,-5.601196c1.322479,-1.793823 3.148727,-2.737427 5.349991,-2.737427c4.248749,0 6.736267,3.651123 6.736267,7.613525c0,0.380096 -0.032501,0.658875 -0.032501,1.040039m-6.703766,-7.173767c-3.241272,0 -5.284988,2.610168 -5.284988,5.723877l10.414993,0c-0.061249,-2.988892 -1.920013,-5.723877 -5.130005,-5.723877"/>
  <path fill="#231f20" fill-rule="nonzero" id="path2413" d="m153.730011,45.177673c-1.951248,0 -3.52626,-0.752563 -4.626221,-1.856384c-1.637512,-1.6362 -2.205017,-3.744965 -2.205017,-6.422424c0,-2.669983 0.567505,-4.778748 2.205017,-6.417542c1.09996,-1.101227 2.674973,-1.854858 4.626221,-1.854858c3.272522,0 5.696259,2.137451 6.073761,5.321045l-1.636261,0c-0.348755,-2.174988 -2.046249,-3.778687 -4.4375,-3.778687c-1.512482,0 -2.676239,0.501251 -3.49498,1.351318c-1.415024,1.476135 -1.731262,3.336182 -1.731262,5.378723c0,2.050018 0.316238,3.933716 1.731262,5.415039c0.818741,0.848694 1.982498,1.319885 3.49498,1.319885c2.422485,0 4.088745,-1.696167 4.470001,-3.836212l1.66626,0c-0.408752,3.052521 -2.833755,5.380096 -6.136261,5.380096"/>
  <path fill="#231f20" fill-rule="nonzero" id="path2415" d="m175.001266,44.768738l0,-10.289917c0,-2.737427 -1.194992,-4.372559 -4.059982,-4.372559c-3.87001,0 -5.225037,3.395081 -5.225037,6.792603l0,7.869873l-1.572479,0l0,-22.7211l1.572479,0l0,9.882355c0.88002,-2.017365 3.116272,-3.303528 5.318756,-3.303528c3.617523,0 5.540009,2.232361 5.540009,5.757446l0,10.384827l-1.573746,0z"/>
  <path fill="#231f20" fill-rule="nonzero" id="path2417" d="m193.348785,44.768738l0,-10.289917c0,-2.737427 -1.195007,-4.309998 -4.061249,-4.309998c-3.87001,0 -5.221252,3.33252 -5.221252,6.730042l0,7.869873l-1.575012,0l0,-15.734863l1.38501,0l0.190002,2.862549c0.881226,-1.983795 3.116226,-3.269958 5.317505,-3.269958c3.619995,0 5.539963,2.232361 5.539963,5.757446l0,10.384827l-1.574966,0z"/>
  <path fill="#231f20" fill-rule="nonzero" id="path2419" d="m200.713776,22.458862l2.201233,0l0,2.201233l-2.201233,0l0,-2.201233zm0.283737,6.575012l1.667526,0l0,15.734863l-1.667526,0l0,-15.734863z"/>
  <path fill="#231f20" fill-rule="nonzero" id="path2421" d="m219.187515,43.291382c-1.132507,1.257477 -3.02124,1.886292 -5.097504,1.886292c-2.139999,0 -3.966263,-0.658875 -5.162506,-2.015076c-0.879974,-1.004944 -1.259995,-1.885071 -1.321213,-3.17749l1.603729,0c0.093765,0.947571 0.50499,1.763763 1.166229,2.424927c0.910034,0.881348 2.201263,1.257629 3.71376,1.257629c1.637497,0 2.926254,-0.376282 3.71376,-1.162567c0.563736,-0.567474 0.847504,-1.102448 0.847504,-2.014923c0,-1.416321 -1.006271,-2.61261 -2.893738,-2.86377l-3.053787,-0.410156c-1.288712,-0.15625 -2.674973,-0.567322 -3.556213,-1.572418c-0.566254,-0.659943 -0.881271,-1.47995 -0.881271,-2.488708c0,-1.258698 0.53627,-2.296295 1.35376,-3.048859c1.133728,-1.044922 2.676239,-1.479797 4.312469,-1.479797c1.886261,0 3.680008,0.594788 4.751282,1.854858c0.722504,0.849915 1.164978,1.889954 1.197479,2.893677l-1.574982,0c-0.061249,-0.502319 -0.282501,-1.291199 -0.78624,-1.886139c-0.725021,-0.850067 -1.952515,-1.382599 -3.58754,-1.382599c-1.228745,0 -2.139954,0.21637 -2.83374,0.718842c-0.784988,0.568695 -1.224976,1.324921 -1.224976,2.171173c0,1.323853 0.659973,2.331238 3.050003,2.647552l2.990005,0.410004c2.957489,0.406189 4.34375,2.421265 4.34375,4.339905c0,1.167603 -0.376282,2.111359 -1.070023,2.897644"/>
  <path fill="#231f20" fill-rule="nonzero" id="path2423" d="m230.611267,45.177673c-1.951248,0 -3.523743,-0.752563 -4.623749,-1.856384c-1.637497,-1.6362 -2.206238,-3.744965 -2.206238,-6.422424c0,-2.669983 0.568741,-4.778748 2.206238,-6.417542c1.100006,-1.101227 2.672501,-1.854858 4.623749,-1.854858c3.273743,0 5.695007,2.137451 6.073761,5.321045l-1.633759,0c-0.347504,-2.174988 -2.046234,-3.778687 -4.440002,-3.778687c-1.51001,0 -2.676239,0.501251 -3.49498,1.351318c-1.413773,1.476135 -1.728775,3.336182 -1.728775,5.378723c0,2.050018 0.315002,3.933716 1.728775,5.415039c0.818741,0.848694 1.98497,1.319885 3.49498,1.319885c2.422485,0 4.092499,-1.696167 4.468735,-3.836212l1.668777,0c-0.411255,3.052521 -2.83374,5.380096 -6.137512,5.380096"/>
  <path fill="#231f20" fill-rule="nonzero" id="path2425" d="m251.883789,44.768738l0,-10.289917c0,-2.737427 -1.196259,-4.372559 -4.061279,-4.372559c-3.871246,0 -5.221222,3.395081 -5.221222,6.792603l0,7.869873l-1.57753,0l0,-22.7211l1.57753,0l0,9.882355c0.878723,-2.017365 3.112488,-3.303528 5.314972,-3.303528c3.622528,0 5.541275,2.232361 5.541275,5.757446l0,10.384827l-1.573746,0z"/>
  <path fill="#231f20" fill-rule="nonzero" id="path2427" d="m271.616272,37.280029l-12.02002,0c0.030029,1.825104 0.627533,3.521423 1.633759,4.718933c0.882507,1.041107 2.111237,1.668701 3.808746,1.668701c1.383759,0 2.581268,-0.505066 3.431244,-1.38504c0.565002,-0.597534 1.006287,-1.291351 1.196259,-2.233734l1.636292,0c-0.221252,1.35376 -0.883759,2.456207 -1.763794,3.30368c-1.133759,1.131287 -2.706238,1.825104 -4.5,1.825104c-2.268738,0 -3.869995,-0.943909 -5.002472,-2.231293c-1.290009,-1.51001 -2.016266,-3.589935 -2.016266,-5.981293c0,-1.981201 0.316254,-3.933716 1.542511,-5.601196c1.322479,-1.793823 3.146271,-2.737427 5.351227,-2.737427c4.248779,0 6.733765,3.651123 6.733765,7.613525c0,0.380096 -0.03125,0.658875 -0.03125,1.040039m-6.702515,-7.173767c-3.242493,0 -5.287476,2.610168 -5.287476,5.723877l10.416229,0c-0.063751,-2.988892 -1.919983,-5.723877 -5.128754,-5.723877"/>
  <path fill="#231f20" fill-rule="nonzero" id="path2429" d="m293.835022,44.736389l-0.190002,-2.86377c-0.881256,2.016296 -3.11499,3.273621 -5.318756,3.273621c-3.618744,0 -5.537476,-2.233582 -5.537476,-5.758667l0,-10.3862l1.572479,0l0,10.292511c0,2.737427 1.195007,4.311218 4.061249,4.311218c3.867493,0 5.222504,-3.334961 5.222504,-6.733704l0,-7.870026l1.574982,0l0,15.735016l-1.384979,0z"/>
  <path fill="#231f20" fill-rule="nonzero" id="path2431" d="m312.310028,44.768738l0,-10.289917c0,-2.737427 -1.19751,-4.309998 -4.061279,-4.309998c-3.871216,0 -5.224976,3.33252 -5.224976,6.730042l0,7.869873l-1.57251,0l0,-15.734863l1.383759,0l0.188751,2.862549c0.881256,-1.983795 3.117462,-3.269958 5.318756,-3.269958c3.619995,0 5.538757,2.232361 5.538757,5.757446l0,10.384827l-1.571259,0z"/>
  <path fill="#231f20" fill-rule="nonzero" id="path2433" d="m319.673767,22.458862l2.202515,0l0,2.201233l-2.202515,0l0,-2.201233zm0.282471,6.575012l1.665009,0l0,15.734863l-1.665009,0l0,-15.734863z"/>
  <path fill="#231f20" fill-rule="nonzero" id="path2435" d="m333.143768,44.768738l-1.607513,0l-6.22876,-15.734863l1.792542,0l5.288727,13.501282l5.063751,-13.501282l1.671265,0l-5.980011,15.734863z"/>
  <path fill="#231f20" fill-rule="nonzero" id="path2437" d="m354.758759,37.280029l-12.019989,0c0.029968,1.825104 0.628723,3.521423 1.63501,4.718933c0.879974,1.041107 2.109985,1.668701 3.807495,1.668701c1.387482,0 2.581238,-0.505066 3.429993,-1.38504c0.567505,-0.597534 1.007507,-1.291351 1.194977,-2.233734l1.637543,0c-0.220032,1.35376 -0.880005,2.456207 -1.76001,3.30368c-1.136261,1.131287 -2.70874,1.825104 -4.502502,1.825104c-2.265015,0 -3.872498,-0.943909 -5.002502,-2.231293c-1.29126,-1.51001 -2.013763,-3.589935 -2.013763,-5.981293c0,-1.981201 0.3125,-3.933716 1.54126,-5.601196c1.32373,-1.793823 3.147491,-2.737427 5.348724,-2.737427c4.248779,0 6.735016,3.651123 6.735016,7.613525c0,0.380096 -0.03125,0.658875 -0.03125,1.040039m-6.703766,-7.173767c-3.237488,0 -5.286255,2.610168 -5.286255,5.723877l10.417542,0c-0.0625,-2.988892 -1.920013,-5.723877 -5.131287,-5.723877"/>
  <path fill="#231f20" fill-rule="nonzero" id="path2439" d="m366.057526,30.387634c-3.936249,0 -5.002472,3.523712 -5.002472,6.828613l0,7.55249l-1.575012,0l0,-15.734863l1.383728,0l0.191284,3.17749c0.689941,-2.171326 2.797455,-3.334961 5.002472,-3.334961c0.502502,0 1.037476,0 1.542511,0.09491l0,1.573792c-0.505035,-0.127563 -1.040009,-0.157471 -1.542511,-0.157471"/>
  <path fill="#231f20" fill-rule="nonzero" id="path2441" d="m381.318787,43.291382c-1.130005,1.257477 -3.018768,1.886292 -5.098755,1.886292c-2.136292,0 -3.963745,-0.658875 -5.161255,-2.015076c-0.882507,-1.004944 -1.256256,-1.885071 -1.317505,-3.17749l1.601257,0c0.095001,0.947571 0.504974,1.763763 1.16626,2.424927c0.909973,0.881348 2.201233,1.257629 3.711243,1.257629c1.639954,0 2.928711,-0.376282 3.712494,-1.162567c0.568756,-0.567474 0.853729,-1.102448 0.853729,-2.014923c0,-1.416321 -1.007446,-2.61261 -2.898743,-2.86377l-3.05249,-0.410156c-1.290009,-0.15625 -2.675018,-0.567322 -3.553741,-1.572418c-0.565033,-0.659943 -0.881256,-1.47995 -0.881256,-2.488708c0,-1.258698 0.533752,-2.296295 1.351227,-3.048859c1.133759,-1.044922 2.675018,-1.479797 4.309998,-1.479797c1.891266,0 3.683777,0.594788 4.756287,1.854858c0.725006,0.849915 1.163727,1.889954 1.193756,2.893677l-1.573792,0c-0.062469,-0.502319 -0.281189,-1.291199 -0.784973,-1.886139c-0.727509,-0.850067 -1.950012,-1.382599 -3.591278,-1.382599c-1.226227,0 -2.137482,0.21637 -2.828735,0.718842c-0.787476,0.568695 -1.22876,1.324921 -1.22876,2.171173c0,1.323853 0.662506,2.331238 3.050018,2.647552l2.992493,0.410004c2.95874,0.406189 4.34375,2.421265 4.34375,4.339905c0,1.167603 -0.378723,2.111359 -1.071228,2.897644"/>
  <path fill="#231f20" fill-rule="nonzero" id="path2443" d="m387.143738,22.458862l2.201233,0l0,2.201233l-2.201233,0l0,-2.201233zm0.282532,6.575012l1.668762,0l0,15.734863l-1.668762,0l0,-15.734863z"/>
  <path fill="#231f20" fill-rule="nonzero" id="path2445" d="m400.297516,44.98999c-2.926239,0 -4.061279,-1.858673 -4.061279,-4.596252l0,-9.912415l-3.144989,0l0,-1.447449l3.144989,0l0,-4.345093l1.572571,-0.376282l0,4.721375l4.878693,0l0,1.447449l-4.878693,0l0,9.851379c0,1.856079 0.503693,3.181152 2.612457,3.181152c0.851288,0 1.637512,-0.131226 2.48999,-0.287476l0,1.386108c-0.882477,0.188904 -1.732483,0.377502 -2.613739,0.377502"/>
  <path fill="#231f20" fill-rule="nonzero" id="path2447" d="m419.369995,44.866394c-1.952515,0 -2.488708,-1.417542 -2.488708,-3.086243c-0.850037,2.234955 -3.241272,3.397522 -5.665039,3.397522c-3.049988,0 -5.414978,-1.825104 -5.414978,-4.844971c0,-2.799988 2.172485,-4.470215 5.292542,-4.688873l5.787476,-0.411224l0,-1.54129c0,-2.613678 -1.763733,-3.585052 -4.153748,-3.585052c-2.485046,0 -4.373779,1.130066 -4.532532,3.458862l-1.57251,0c0.222473,-3.17749 2.706238,-4.93866 6.105042,-4.93866c2.139984,0 4.468689,0.722351 5.320007,2.893677c0.37619,0.975037 0.407471,1.981201 0.407471,3.022461l0,7.174988c0,1.069946 0.158752,1.69754 1.22879,1.69754c0.18869,0 0.28244,0 0.439972,-0.032501l0,1.386108c-0.378784,0.062561 -0.378784,0.097656 -0.753784,0.097656m-2.488708,-8.183899l-5.632538,0.347595c-2.330017,0.152588 -3.838715,1.380005 -3.838715,3.302612c0,2.264862 1.69873,3.398743 3.931274,3.398743c3.966187,0 5.539978,-3.210144 5.539978,-6.232605l0,-0.816345zm-7.927551,-13.501129l1.886292,0l0,1.981201l-1.886292,0l0,-1.981201zm5.787537,0l1.918762,0l0,1.981201l-1.918762,0l0,-1.981201z"/>
  <path fill="#231f20" fill-rule="nonzero" id="path2449" d="m429.434998,44.98999c-2.926239,0 -4.061279,-1.858673 -4.061279,-4.596252l0,-9.912415l-3.146179,0l0,-1.447449l3.146179,0l0,-4.345093l1.573792,-0.376282l0,4.721375l4.877502,0l0,1.447449l-4.877502,0l0,9.851379c0,1.856079 0.503784,3.181152 2.61499,3.181152c0.846252,0 1.635071,-0.131226 2.485046,-0.287476l0,1.386108c-0.881287,0.188904 -1.732544,0.377502 -2.612549,0.377502"/>
  <path fill="#231f20" fill-rule="nonzero" id="path2451" d="m130.72377,77.581238l-0.186234,-2.768555c-0.852509,1.951141 -3.117523,3.17749 -5.22625,3.17749c-1.791267,0 -3.146286,-0.563812 -4.185028,-1.478882c-1.762505,-1.539917 -2.579994,-4.059906 -2.579994,-6.763611c0,-2.581329 0.787506,-5.100098 2.453766,-6.673889c1.038742,-1.003723 2.456245,-1.637421 4.278755,-1.637421c2.237473,0 4.406242,1.259918 5.258751,3.056183l0,-9.631195l1.571228,0l0,22.719879l-1.384995,0zm-2.138748,-13.373718c-0.786247,-0.755005 -1.85627,-1.227417 -3.306236,-1.227417c-1.478767,0 -2.547531,0.534973 -3.36628,1.384888c-1.228752,1.32019 -1.762505,3.336334 -1.762505,5.348816c0,2.237549 0.628777,4.343872 2.077522,5.635071c0.787506,0.692444 1.792488,1.101227 3.117485,1.101227c1.383743,0 2.421265,-0.504913 3.207512,-1.261139c1.417511,-1.378784 2.016266,-3.301392 2.016266,-5.475159c0,-2.328796 -0.536285,-4.152527 -1.983765,-5.506287"/>
  <path fill="#231f20" fill-rule="nonzero" id="path2453" d="m148.410004,76.103882c-1.101227,1.100006 -2.64122,1.886292 -4.592468,1.886292c-1.952515,0 -3.492523,-0.786285 -4.598785,-1.886292c-1.634979,-1.636353 -2.22998,-3.712463 -2.22998,-6.390076c0,-2.673645 0.595001,-4.753723 2.22998,-6.388702c1.106262,-1.102448 2.646271,-1.888733 4.598785,-1.888733c1.951248,0 3.491241,0.786285 4.592468,1.888733c1.637497,1.634979 2.235031,3.715057 2.235031,6.388702c0,2.677612 -0.597534,4.753723 -2.235031,6.390076m-1.131256,-11.738892c-0.817474,-0.849915 -1.952469,-1.384888 -3.461212,-1.384888c-1.508759,0 -2.645004,0.534973 -3.462524,1.384888c-1.41626,1.480103 -1.762482,3.305054 -1.762482,5.348816c0,2.044983 0.346222,3.872528 1.762482,5.351257c0.81752,0.851288 1.953766,1.38504 3.462524,1.38504c1.508743,0 2.643738,-0.533752 3.461212,-1.38504c1.417511,-1.478729 1.761261,-3.306274 1.761261,-5.351257c0,-2.043762 -0.34375,-3.868713 -1.761261,-5.348816"/>
  <path fill="#231f20" fill-rule="nonzero" id="path2455" d="m162.100037,63.198914c-3.935013,0 -5.003784,3.527527 -5.003784,6.832428l0,7.549896l-1.573746,0l0,-15.736084l1.382523,0l0.191223,3.181152c0.693756,-2.173767 2.800034,-3.337402 5.003784,-3.337402c0.503723,0 1.038742,0 1.54248,0.09613l0,1.573792c-0.503738,-0.12619 -1.038757,-0.159912 -1.54248,-0.159912"/>
  <path fill="#231f20" fill-rule="nonzero" id="path2457" d="m172.665039,77.803864c-2.925003,0 -4.058777,-1.858673 -4.058777,-4.595032l0,-9.916229l-3.14624,0l0,-1.447449l3.14624,0l0,-4.341278l1.575012,-0.380096l0,4.721375l4.877472,0l0,1.447449l-4.877472,0l0,9.8526c0,1.854858 0.5,3.17749 2.612503,3.17749c0.84874,0 1.636246,-0.123901 2.483749,-0.281372l0,1.38504c-0.880005,0.187531 -1.731262,0.377502 -2.612488,0.377502"/>
  <path fill="#231f20" fill-rule="nonzero" id="path2459" d="m199.512527,77.581238l0,-10.289917c0,-2.738647 -1.008759,-4.372559 -3.747513,-4.372559c-1.195007,0 -2.076233,0.406342 -2.799988,1.070099c-1.227509,1.163788 -1.856232,2.797394 -1.856232,4.690094l0,8.902283l-1.605042,0l0,-10.289917c0,-2.738647 -1.038742,-4.372559 -3.776245,-4.372559c-1.196259,0 -2.109985,0.406342 -2.802505,1.070099c-1.416245,1.313629 -1.887466,3.492584 -1.887466,5.724945l0,7.867432l-1.57251,0l0,-15.736084l1.38501,0l0.1875,2.70752c0.818741,-1.792603 2.518723,-3.116302 4.781219,-3.116302c2.742493,0 4.345016,1.352386 4.975006,3.399963c0.818756,-1.949921 2.486267,-3.399963 5.06749,-3.399963c3.681259,0 5.225021,2.392426 5.225021,5.761261l0,10.383606l-1.573746,0z"/>
  <path fill="#231f20" fill-rule="nonzero" id="path2461" d="m217.735031,77.551331l-0.19252,-2.86377c-0.881241,2.013855 -3.112488,3.275146 -5.317505,3.275146c-3.619995,0 -5.538757,-2.237549 -5.538757,-5.763855l0,-10.382538l1.573761,0l0,10.29007c0,2.737427 1.19751,4.311218 4.060028,4.311218c3.871216,0 5.222473,-3.336182 5.222473,-6.734924l0,-7.866364l1.575012,0l0,15.735016l-1.382492,0z"/>
  <path fill="#231f20" fill-rule="nonzero" id="path2463" d="m236.206253,77.581238l0,-10.289917c0,-2.738647 -1.196243,-4.311218 -4.057465,-4.311218c-3.872528,0 -5.226288,3.336182 -5.226288,6.733704l0,7.867432l-1.572495,0l0,-15.736084l1.383789,0l0.188705,2.86499c0.882523,-1.982574 3.116257,-3.273773 5.320023,-3.273773c3.621246,0 5.540009,2.237396 5.540009,5.761261l0,10.383606l-1.576279,0z"/>
  <path fill="#231f20" fill-rule="nonzero" id="path2465" d="m254.461258,77.581238l-0.189972,-2.768555c-0.847519,1.951141 -3.115005,3.17749 -5.226242,3.17749c-1.792542,0 -3.145035,-0.563812 -4.186249,-1.478882c-1.761292,-1.539917 -2.578781,-4.059906 -2.578781,-6.763611c0,-2.581329 0.788773,-5.100098 2.457504,-6.673889c1.038742,-1.003723 2.451248,-1.637421 4.277496,-1.637421c2.236252,0 4.408752,1.259918 5.256271,3.056183l0,-9.631195l1.574966,0l0,22.719879l-1.384995,0zm-2.142487,-13.373718c-0.787506,-0.755005 -1.856277,-1.227417 -3.303757,-1.227417c-1.478729,0 -2.548752,0.534973 -3.367493,1.384888c-1.226242,1.32019 -1.762512,3.336334 -1.762512,5.348816c0,2.237549 0.631256,4.343872 2.075012,5.635071c0.788757,0.692444 1.796265,1.101227 3.118744,1.101227c1.383728,0 2.422516,-0.504913 3.208771,-1.261139c1.416229,-1.378784 2.016251,-3.301392 2.016251,-5.475159c0,-2.328796 -0.53627,-4.152527 -1.985016,-5.506287"/>
 </g>
</svg>